<svg width="56" height="57" viewBox="0 0 56 57" fill="none" xmlns="http://www.w3.org/2000/svg">
<path d="M52.7991 27.3563H46.4044V10.5999C46.4012 8.03063 44.3284 5.94852 41.7705 5.94547H13.9672C11.4093 5.94852 9.33642 8.03063 9.33328 10.6V16.1855H4.24897C1.93956 16.188 0.0680497 18.0679 0.0655518 20.3876V45.496C0.0680497 47.8158 1.93956 49.6956 4.24897 49.6981H19.0514C20.8152 49.6928 22.3856 48.5751 22.9753 46.9054H38.9901C39.502 46.9054 39.9169 46.4887 39.9169 45.9745V44.1127C39.9169 42.5703 38.672 41.3199 37.1366 41.3199H34.3562V37.5963H41.7705V46.8123C41.7705 48.4062 43.0568 49.6981 44.6434 49.6981H52.799C54.3858 49.6981 55.672 48.406 55.672 46.8123V30.2422C55.6721 28.6484 54.3858 27.3563 52.7991 27.3563ZM21.3814 45.496C21.3805 46.7881 20.3378 47.8353 19.0515 47.8364H4.24897C2.96263 47.8354 1.92012 46.7881 1.91903 45.496V45.0436H21.3813V45.496H21.3814ZM21.3814 43.1818H1.91914V22.7018H21.3814V43.1818ZM21.3814 20.84H1.91914V20.3876C1.92012 19.0955 2.96274 18.0483 4.24908 18.0472H19.0515C20.3378 18.0482 21.3804 19.0955 21.3814 20.3876V20.84ZM37.1366 43.1818C37.6484 43.1818 38.0633 43.5986 38.0633 44.1127V45.0435H23.2349V43.1818H37.1366ZM23.2349 41.3199V37.5963H32.5026V41.3199H23.2349ZM41.7705 35.7345H33.4295H23.2349V32.9418H41.7705V35.7345ZM41.7705 30.2422V31.08H23.2349V20.3876C23.2323 18.0679 21.3608 16.188 19.0515 16.1855H11.1869V10.6C11.1869 9.05772 12.4316 7.80732 13.9672 7.80732H41.7705C43.306 7.80732 44.5508 9.05761 44.5508 10.6V27.3657C43.004 27.4158 41.7747 28.6876 41.7705 30.2422ZM53.8185 46.8123C53.8185 47.3779 53.362 47.8364 52.799 47.8364H44.6434C44.0804 47.8364 43.624 47.3779 43.624 46.8123V45.9745H53.8185V46.8123ZM53.8185 44.1127H43.624V32.9418H53.8185V44.1127ZM53.8185 31.08H43.624V30.2422C43.624 29.6767 44.0804 29.2182 44.6434 29.2182H52.799C53.362 29.2182 53.8185 29.6767 53.8185 30.2422V31.08Z" fill="white"/>
</svg>
