<svg width="57" height="57" viewBox="0 0 57 57" fill="none" xmlns="http://www.w3.org/2000/svg">
<path d="M55.5915 7.22042L40.7631 0.786048C40.5289 0.684581 40.2633 0.684581 40.0291 0.786048L31.247 4.59529C26.5927 0.52465 19.9992 -0.437825 14.3839 2.13371C8.76856 4.70525 5.16785 10.3361 5.1749 16.535V21.1895C2.61694 21.1926 0.54408 23.2747 0.541016 25.844V51.9092C0.54408 54.4785 2.61694 56.5606 5.1749 56.5636H36.6853C39.2432 56.5606 41.3161 54.4785 41.3192 51.9092V39.5282C41.3488 39.5096 41.3831 39.5021 41.4118 39.4817L51.6592 32.1536C54.4646 30.1532 56.1361 26.9156 56.1476 23.46V8.07499C56.1481 7.70434 55.9297 7.36868 55.5915 7.22042ZM7.02845 16.535C7.02679 11.2295 10.0196 6.3818 14.7517 4.02486C19.4838 1.66792 25.1371 2.20929 29.3406 5.42192L25.1933 7.22042C25.1821 7.22639 25.1713 7.23291 25.1608 7.23997C22.0089 5.78722 18.3376 6.0461 15.4187 7.92691C12.4998 9.80771 10.735 13.0517 10.7356 16.535V21.1895H7.02845L7.02845 16.535ZM24.6372 21.1895H12.589L12.5891 16.535C12.5782 13.6322 14.0696 10.9322 16.5274 9.40524C18.9852 7.87825 22.0563 7.74358 24.6372 9.04964V21.1895ZM36.6853 54.7019H5.1749C3.63936 54.7019 2.39457 53.4515 2.39457 51.9092V50.9783H7.95522C8.46707 50.9783 8.882 50.5615 8.882 50.0474C8.882 49.5332 8.46707 49.1165 7.95522 49.1165H2.39457V47.2547H7.95522C8.46707 47.2547 8.882 46.8379 8.882 46.3238C8.882 45.8096 8.46707 45.3929 7.95522 45.3929H2.39457V43.5311H7.95522C8.46707 43.5311 8.882 43.1143 8.882 42.6002C8.882 42.086 8.46707 41.6693 7.95522 41.6693H2.39457V39.8075H7.95522C8.46707 39.8075 8.882 39.3907 8.882 38.8766C8.882 38.3624 8.46707 37.9457 7.95522 37.9457H2.39457V36.0839H7.95522C8.46707 36.0839 8.882 35.6671 8.882 35.153C8.882 34.6389 8.46707 34.2221 7.95522 34.2221H2.39457V32.3603H7.95522C8.46707 32.3603 8.882 31.9435 8.882 31.4294C8.882 30.9153 8.46707 30.4985 7.95522 30.4985H2.39457V28.6367H7.95522C8.46707 28.6367 8.882 28.2199 8.882 27.7058C8.882 27.1917 8.46707 26.7749 7.95522 26.7749H2.39457V25.844C2.39457 24.3016 3.63936 23.0513 5.1749 23.0513H24.6372V23.46C24.6479 26.9149 26.3188 30.152 29.1237 32.1518L37.2265 37.9457H33.9049C33.3931 37.9457 32.9782 38.3624 32.9782 38.8766C32.9782 39.3907 33.3931 39.8075 33.9049 39.8075H39.4656V41.6693H33.9049C33.3931 41.6693 32.9782 42.086 32.9782 42.6002C32.9782 43.1143 33.3931 43.5311 33.9049 43.5311H39.4656V45.3929H33.9049C33.3931 45.3929 32.9782 45.8096 32.9782 46.3238C32.9782 46.8379 33.3931 47.2547 33.9049 47.2547H39.4656V49.1165H33.9049C33.3931 49.1165 32.9782 49.5332 32.9782 50.0474C32.9782 50.5615 33.3931 50.9783 33.9049 50.9783H39.4656V51.9092C39.4656 53.4515 38.2208 54.7019 36.6853 54.7019ZM54.294 23.46C54.2839 26.3126 52.9033 28.9848 50.5869 30.6353L40.3924 37.9243L30.1978 30.6353C27.8815 28.9848 26.5009 26.3126 26.4907 23.46V8.68659L31.449 6.53528L31.4749 6.52411L40.3924 2.65436L54.294 8.68659V23.46Z" fill="white"/>
<path d="M40.0216 4.84202L28.9003 9.6678C28.5621 9.81606 28.3437 10.1517 28.3442 10.5224V23.4619C28.3547 25.7124 29.4456 27.8197 31.2738 29.1208L39.8548 35.2554C40.1765 35.4855 40.6081 35.4855 40.9299 35.2554L49.5109 29.1208C51.3401 27.8197 52.4312 25.7114 52.4404 23.46V10.5205C52.441 10.1499 52.2226 9.81419 51.8844 9.66594L40.763 4.84015C40.5264 4.73713 40.2577 4.7378 40.0216 4.84202ZM50.5869 11.1358V23.46C50.5779 25.1087 49.7767 26.6516 48.4358 27.6025L40.3923 33.3527L32.3488 27.6025C31.0086 26.651 30.2077 25.1085 30.1978 23.46V11.1358L40.3923 6.71126L50.5869 11.1358Z" fill="white"/>
<path d="M34.5926 21.1095C34.3277 20.9099 33.977 20.8675 33.6725 20.9981C33.368 21.1287 33.156 21.4126 33.1164 21.7428C33.0768 22.073 33.2156 22.3993 33.4805 22.5989L37.7168 25.79C38.1172 26.0918 38.6838 26.0197 38.9966 25.6271L47.4701 14.9888C47.7898 14.587 47.7247 14.001 47.3246 13.6799C46.9246 13.3589 46.3412 13.4243 46.0216 13.8261L38.1106 23.7597L34.5926 21.1095Z" fill="white"/>
<path d="M26.4908 35.153C26.4919 32.5164 24.6573 30.2382 22.0901 29.6881C19.523 29.1381 16.9226 30.4662 15.8525 32.8737C14.7825 35.2813 15.5343 38.1126 17.6558 39.6651L16.312 47.0881C16.2629 47.3595 16.3361 47.6389 16.512 47.8508C16.6879 48.0627 16.9484 48.1853 17.223 48.1856H24.6372C24.9119 48.1853 25.1724 48.0627 25.3483 47.8508C25.5242 47.6389 25.5974 47.3595 25.5483 47.0881L24.2044 39.6651C25.6376 38.6119 26.4865 36.9367 26.4908 35.153ZM22.7272 38.4111C22.3831 38.6059 22.1997 38.9983 22.2703 39.3886L23.5251 46.3238H18.3352L19.5919 39.3877C19.6625 38.9973 19.4791 38.605 19.135 38.4102C17.6569 37.5874 16.9199 35.8646 17.3429 34.2212C17.766 32.5778 19.2421 31.4298 20.932 31.4298C22.6219 31.4298 24.098 32.5778 24.5211 34.2212C24.9441 35.8646 24.2071 37.5874 22.729 38.4102L22.7272 38.4111Z" fill="white"/>
</svg>
